# xmcd CD database file
#
# Track frame offsets:
#	150
#	3520
#	24955
#	42855
#	70175
#	90590
#	111657
#	132605
#	154680
#	170725
#	194572
#	213065
#	230980
#
# Disc length: 4440 seconds
#
# Revision: 0
# Processed by: cddbd v1.5PL3 Copyright (c) Steve Scherf et al.
# Submitted via: CDex 1.51
#
DISCID=b711560d
DTITLE=茉樹代 - garden
DYEAR=1900
DGENRE=J-pop
TTITLE0=ready?
TTITLE1=Sign of Wish
TTITLE2=NEGAI
TTITLE3=桜咲くまで
TTITLE4=トンネル - my mix-
TTITLE5=愛のカケラ
TTITLE6=雨
TTITLE7=ANSWER
TTITLE8=大事なひと
TTITLE9=あの雲まで
TTITLE10=風の吹く場所
TTITLE11=continued...
TTITLE12=CCCD
EXTD=
EXTT0=
EXTT1=
EXTT2=
EXTT3=
EXTT4=
EXTT5=
EXTT6=
EXTT7=
EXTT8=
EXTT9=
EXTT10=
EXTT11=
EXTT12=
PLAYORDER=
